<svg xmlns="http://www.w3.org/2000/svg" xmlns:xlink="http://www.w3.org/1999/xlink" width="264px" height="280px" viewBox="0 0 264 280" version="1.1">
    <title id="circle_Title">Avataaar/Circle</title>
    <desc>Created with python_avatars</desc>
    <defs>
        <circle id="circle_path-1" cx="120" cy="120" r="120" />
        <path d="M-3.19744231e-14,160 L-3.19744231e-14,-1.42108547e-14 L264,-1.42108547e-14 L264,160 L252,160 C252,226.27417 198.27417,280 132,280 C65.72583,280 12,226.27417 12,160 L12,160 L-3.19744231e-14,160 Z" id="circle_path-3" />
        <path d="M100,0 C130.927946,-5.68137151e-15 156,25.072054 156,56 L156.000809,62.1660527 C161.675838,63.1185422 166,68.05429 166,74 L166,88 C166,94.0524166 161.519235,99.0582945 155.693975,99.8813638 C153.627928,119.686472 141.237929,136.421678 124.001014,144.610469 L124,163 L128,163 C167.764502,163 200,195.235498 200,235 L200,244 L0,244 L0,235 C-4.86974701e-15,195.235498 32.235498,163 72,163 L76,163 L75.9999836,144.610943 C58.7625487,136.422324 46.3721119,119.686854 44.3051107,99.8809698 C38.480765,99.0582945 34,94.0524166 34,88 L34,74 C34,68.053942 38.3246685,63.1179645 44.0001873,62.1658855 L44,56 C44,25.072054 69.072054,5.68137151e-15 100,0 Z" id="circle_path-5" />
        <path d="M83,36.3476251 C83,52.6289957 105.161905,65.8276544 132.5,65.8276544 C159.838095,65.8276544 182,52.6289957 182,36.3476251 C182,34.9853134 181.844841,33.6445843 181.544472,32.3313638 C210.784239,41.4879251 232,68.792221 232,101.051724 L232,110 L32,110 L32,101.051724 C32,68.3970853 53.7386736,40.8197864 83.5337207,32.0021267 C83.1821692,33.4207025 83,34.871494 83,36.3476251 Z" id="circle_path-7" />
        <rect id="circle_path-9" x="0" y="0" width="264" height="280" />
        <path d="M74,0 C114.869071,0 148,33.1309285 148,74 L148,84.1482318 L148,197.608051 C135.525121,187.236892 119.490913,181 102,181 L102,181 L98,181 L98,162.610951 C115.530782,154.282984 128.048193,137.114792 129.791419,116.867187 C135.569129,116.002364 140,111.018625 140,105 L140,105 L140,92 C140,87.3536213 137.359271,83.3240177 133.496777,81.3301515 C132.723933,81.0500337 131.951808,80.748163 131.180891,80.4262497 C130.794819,80.3202581 130.400778,80.2331546 130,80.1659169 L130,80.1659169 L130.000458,79.9172528 C117.224481,74.2339715 104.877985,63.0706967 96.1104311,47.8848473 C93.1752556,42.8009742 90.8310687,37.5951441 89.0661426,32.3970356 C80.4313947,42.9409152 67.7445474,53.6023901 52.3415164,62.4953343 C42.777598,68.0170651 33.1467898,72.2910056 24,75.2659587 L24.0003852,137.246608 C29.6019576,148.318362 38.7728825,157.277529 50,162.610951 L50,162.610951 L50,181 L46,181 C38.3273639,181 30.9350359,182.200142 24.0004995,184.422941 L24,230 C24,244.105888 13.5691766,255.775526 0,257.716445 L0,74 C0,33.1309285 33.1309285,0 74,0 Z" id="circle_path-11" />
    </defs>
    <g id="circle_Avataaar/Circle" stroke="none" stroke-width="1" fill="none" fill-rule="evenodd">
        <g id="circle_Circle" transform="translate(12.000000, 40.000000)">
            <mask id="circle_mask-2" fill="white">
                <use xlink:href="#circle_path-1" />
            </mask>
            <use id="circle_Background-Color" fill="#262E33" xlink:href="#circle_path-1" />
            <g id="circle_Fabric-Color" mask="url(#circle_mask-2)" fill="">
                <rect id="circle_ðŸ–Color" x="0" y="0" width="240" height="240" />
            </g>
        </g>
        <mask id="circle_mask-4" fill="white">
            <use xlink:href="#circle_path-3" />
        </mask>
        <g id="circle_Mask" />
        <g id="circle_Avataaar" mask="url(#circle_mask-4)">
            <g id="circle_Body" transform="translate(32.000000, 36.000000)">
                <mask id="circle_mask-6" fill="white">
                    <use xlink:href="#circle_path-5" />
                </mask>
                <use fill="#D0C6AC" xlink:href="#circle_path-5" />
                <g id="circle_Skin-Color" mask="url(#circle_mask-6)" fill="#EDB98A">
                    <g transform="translate(-32.000000, 0.000000)" id="circle_Color">
                        <rect x="0" y="0" width="264" height="244" />
                    </g>
                </g>
                <path d="M44,94 C44,124.927946 69.072054,150 100,150 C130.927946,150 156,124.927946 156,94 L156,94 L156,102 C156,132.927946 130.927946,158 100,158 C69.072054,158 44,132.927946 44,102 Z" id="circle_Neck-Shadow" fill-opacity="0.100000001" fill="#000000" mask="url(#circle_mask-6)" />
            </g>
            <g id="circle_Clothing" transform="translate(0.000000, 170.000000)">
                
            <defs>
        <path d="M187.997478,34.7419477 L187.994775,34.6445513 C213.853089,45.5674185 232,71.1642324 232,100.999485 L232,110 L32,110 L32,100.999485 C32,71.1638494 50.1473773,45.5667611 76.0062213,34.6441305 C76.281568,20.5515788 90.0823522,15.075879 108.000323,13.0708785 L108,32 C108,45.254834 118.745166,56 132,56 C145.254834,56 156,45.254834 156,32 L156,32 L156.001405,13.0710429 C173.960465,15.0808175 187.783368,20.5773078 187.997478,34.7419477 Z" id="hoodie_path-1" />
    </defs>
    <g id="hoodie_Clothing/Hoodie" stroke="none" stroke-width="1" fill="none" fill-rule="evenodd">
        <mask id="hoodie_mask-2" fill="white">
            <use xlink:href="#hoodie_path-1" />
        </mask>
        <use id="hoodie_Hoodie" fill="#B7C1DB" xlink:href="#hoodie_path-1" />
        <g id="hoodie_Fabric-Color" mask="url(#hoodie_mask-2)" fill="#FF488E">
            <rect id="hoodie_ðŸ–Color" x="0" y="0" width="264" height="110" />
        </g>
        <path d="M101.999618,61.7388852 L102,110 L95,110 L94.9990839,58.149718 C97.2029904,59.4596568 99.5461861,60.6605136 101.999618,61.7388852 Z M169.001367,58.1494501 L169,98.5 C169,100.432997 167.432997,102 165.5,102 C163.567003,102 162,100.432997 162,98.5 L162.001384,61.7384448 C164.454619,60.6601132 166.797629,59.4593148 169.001367,58.1494501 Z" id="hoodie_Straps" fill="#F4F4F4" mask="url(#hoodie_mask-2)" />
        <path d="M132,68 L130.99629,67.9952183 C97.8802308,67.680027 65.5,51.8228864 65.5,32.3076923 C65.5,21.2431784 75.908757,15.5714792 90.9589345,12.7245804 C81.8748056,16.0747223 76,21.706273 76,31.0769231 C76,51.4689754 103.821205,68 132,68 Z M132,68 C160.178795,68 188,51.4689754 188,31.0769231 C188,21.706273 182.125194,16.0747223 173.040502,12.724588 C188.091243,15.5714792 198.5,21.2431784 198.5,32.3076923 C198.5,52.0200095 165.462319,68 132,68 L132,68 Z" id="hoodie_Shadow" fill-opacity="0.16" fill="#000000" mask="url(#hoodie_mask-2)" />
    </g>
</g>
            <g id="circle_Face" transform="translate(76.000000, 82.000000)" fill="#000000">
                <g id="circle_Mouth" transform="translate(2.000000, 52.000000)">    
                    
                <defs>
        <path d="M35.117844,15.1280772 C36.1757121,24.6198025 44.2259873,32 54,32 C63.8042055,32 71.8740075,24.574136 72.8917593,15.0400546 C72.9736685,14.272746 72.1167429,13 71.042767,13 C56.1487536,13 44.7379213,13 37.0868244,13 C36.0066168,13 35.0120058,14.1784435 35.117844,15.1280772 Z" id="smile_path-1" />
    </defs>
    <g id="smile_Mouth/Smile" stroke="none" stroke-width="1" fill="none" fill-rule="evenodd">
        <mask id="smile_mask-2" fill="white">
            <use xlink:href="#smile_path-1" />
        </mask>
        <use id="smile_Mouth" fill-opacity="0.699999988" fill="#000000" xlink:href="#smile_path-1" />
        <path d="M44,2 L65,2 C67.7614237,2 70,4.23857625 70,7 L70,13 C70,15.7614237 67.7614237,18 65,18 L44,18 C41.2385763,18 39,15.7614237 39,13 L39,7 C39,4.23857625 41.2385763,2 44,2 Z" id="smile_Teeth" fill="#FFFFFF" mask="url(#smile_mask-2)" />
        <g id="smile_Tongue" mask="url(#smile_mask-2)" fill="#FF4F6D">
            <g transform="translate(38.000000, 24.000000)">
                <circle cx="11" cy="11" r="11" />
                <circle cx="21" cy="11" r="11" />
            </g>
        </g>
    </g>
</g>
                <g id="circle_Nose" transform="translate(28.000000, 40.000000)" fill-opacity="0.16">
                    
                <g id="default_Nose/Default" stroke="none" stroke-width="1" fill="none" fill-rule="evenodd" fill-opacity="0.16">
        <path d="M16,8 C16,12.418278 21.372583,16 28,16 L28,16 C34.627417,16 40,12.418278 40,8" id="default_Nose" fill="#000000" />
    </g>
</g>
                <g id="circle_Eyes" transform="translate(0.000000, 8.000000)">
                    
                <g id="default_Eyes/Default-ðŸ˜€" stroke="none" stroke-width="1" fill="none" fill-rule="evenodd" fill-opacity="0.599999964">
        <circle id="default_Eye" fill="#000000" cx="30" cy="22" r="6" />
        <circle id="default_Eye" fill="#000000" cx="82" cy="22" r="6" />
    </g>
</g>
                <g id="circle_Eyebrow" fill-opacity="0.599999964">
                    
                <g id="up_down_Eyebrow/Outline/Up-Down" stroke="none" stroke-width="1" fill="none" fill-rule="evenodd" fill-opacity="0.599999964">
        <path d="M15.5914402,14.1619718 C20.0874642,7.83556966 29.6031809,4.65350252 39.3473715,7.79575991 C40.3986323,8.13476518 41.5256656,7.55736801 41.8646708,6.50610724 C42.2036761,5.45484647 41.6262789,4.32781316 40.5750182,3.98880789 C29.1665516,0.309863172 17.8358054,4.09887835 12.3309495,11.8448183 C11.6910852,12.7451779 11.9022584,13.9937761 12.8026181,14.6336404 C13.7029777,15.2735046 14.9515759,15.0623314 15.5914402,14.1619718 Z" id="up_down_Eyebrow" fill="#000000" fill-rule="nonzero" />
        <path d="M73.6376405,21.1577995 C77.5525501,15.6490895 88.2853148,12.56006 97.5304219,14.8304032 C98.6031199,15.0938282 99.6862617,14.4377829 99.9496867,13.3650849 C100.213112,12.2923868 99.5570664,11.2092451 98.4843684,10.9458201 C87.7477584,8.30920485 75.3194947,11.8862211 70.3771498,18.840646 C69.7372855,19.7410057 69.9484587,20.9896038 70.8488184,21.6294681 C71.749178,22.2693324 72.9977762,22.0581591 73.6376405,21.1577995 Z" id="up_down_Eyebrow" fill="#000000" fill-rule="nonzero" transform="translate(85.007549, 16.038421) scale(-1, 1) translate(-85.007549, -16.038421) " />
    </g>
</g>
            </g>
            <g id="circle_Top">
                
            <defs>
        <path d="M116,0 C127.211125,0 137.909274,2.19631647 147.687647,6.18215166 C148.610063,6.06196359 149.5487,6 150.5,6 C157.20097,6 163.273609,9.07451734 167.696813,14.0565753 C185.740112,14.9903576 201.159349,27.3683704 208.470051,44.9557881 C216.493006,49.5558365 222,59.0429312 222,70 C222,70.5797069 221.984585,71.155299 221.954198,71.7262703 C228.261198,81.2649995 232,93.1347507 232,106 C232,113.33094 230.786009,120.338641 228.574705,126.776091 C228.853754,128.467881 229,130.214422 229,132 C229,141.455043 224.899348,149.815506 218.619686,154.885227 C211.258904,172.684098 195.389647,185 177,185 C175.501611,185 174.019954,184.918235 172.558269,184.7584 C167.111013,189.906495 160.121612,193 152.5,193 C148.058842,193 143.832349,191.949612 140.000349,190.054355 L140.001014,180.610469 C157.531251,172.282329 170.048207,155.114429 171.791415,134.867236 C177.471002,134.017289 181.849484,129.186467 181.9962,123.304975 L182,123 L182,110 C182,108.014881 181.517977,106.142344 180.66459,104.493048 C177.966884,103.690147 174.996344,101.441815 172.021298,98.1710101 C172.014833,98.1684128 172.007822,98.1672297 172.000809,98.1660527 L172.000578,98.1482144 C165.15458,90.6107624 158.28802,77.6643047 154.667387,64.4375583 C143.683333,66.1120035 130.513036,67.0867832 116.353789,67.0867832 C101.905209,67.0867832 88.4864083,66.0717587 77.3694123,64.3345498 C73.7552209,77.6016095 66.866618,90.6012163 59.9999953,98.157119 L60.0001873,98.1658855 L59.9901075,98.1679956 C57.0105489,101.444388 54.0354269,103.695335 51.3340398,104.498009 C50.5253168,106.059631 50.0504689,107.824174 50.0037999,109.695025 L50,110 L50,123 C50,129.018777 54.4310943,134.002616 60.2090181,134.867253 C61.9518594,155.115197 74.4696989,172.283632 92.0009808,180.611417 L92.0011384,190.053619 C88.1687443,191.949341 83.9417323,193 79.5,193 C71.8787605,193 64.8896703,189.906797 59.4414808,184.758965 C57.9800457,184.918235 56.4983893,185 55,185 C36.6103527,185 20.7410963,172.684098 13.3790205,154.885043 C7.10065151,149.815506 3,141.455043 3,132 C3,130.214422 3.14624584,128.467881 3.42579502,126.775169 C1.21399074,120.338641 0,113.33094 0,106 C0,93.1347507 3.73880224,81.2649995 10.0453187,71.7257869 C10.015415,71.155299 10,70.5797069 10,70 C10,59.0429312 15.5069937,49.5558365 23.5303378,44.956594 C30.8406711,27.3683817 46.2599587,14.9903972 64.3034353,14.0567145 C68.7263913,9.07451734 74.7990304,6 81.5,6 C82.4512999,6 83.3899366,6.06196359 84.3129883,6.18255189 C94.0907062,2.19632063 104.788864,0 116,0 Z" id="fro_path-1" />
    </defs>
    <g id="fro_Top/Long-Hair/Fro" stroke="none" stroke-width="1" fill="none" fill-rule="evenodd">
        <path d="M97.3896087,42.3923264 C107.880511,40.9293514 120.189742,40.0867832 133.353789,40.0867832 C146.22875,40.0867832 158.286026,40.8927515 168.625585,42.2974868 C168.785566,39.3365659 169.136623,36.5967441 169.664482,34.1152734 C187.354365,45.9536992 199,66.1168577 199,89 L199.001113,109.776682 C189.979495,108.708272 177.129693,89.3920217 171.667447,69.4377806 C160.684858,71.1118906 147.513856,72.0867832 133.353789,72.0867832 C118.904694,72.0867832 105.485452,71.0716864 94.3682241,69.3343642 C88.921994,89.3307155 76.0372341,108.71789 66.9995261,109.777628 L67,89 C67,66.1129662 78.6495962,45.9468414 96.3425686,34.1078455 C96.8779574,36.6186627 97.2315682,39.3925882 97.3896087,42.3923264 Z" id="fro_Shadow" fill-opacity="0.16" fill="#000000" />
        <g id="fro_Hair" transform="translate(16.000000, 0.000000)">
            <mask id="fro_mask-2" fill="white">
                <use xlink:href="#fro_path-1" />
            </mask>
            <use fill="#314756" xlink:href="#fro_path-1" />
            <g id="fro_Hair-Color" mask="url(#fro_mask-2)" fill="#D6B370">
                <g transform="translate(-16.000000, 0.000000)" id="fro_Color">
                    <rect x="0" y="0" width="264" height="280" />
                </g>
            </g>
        </g>
        <g id="fro_Facial-Hair" transform="translate(49.000000, 72.000000)" />
        <g id="fro_Accessory" transform="translate(62.000000, 85.000000)" />
    </g>
</g>
        </g>
    </g>
</svg>